<mxfile host="app.diagrams.net" agent="Mozilla/5.0 (Windows NT 10.0; Win64; x64; rv:138.0) Gecko/20100101 Firefox/138.0" version="26.2.13">
  <diagram name="HomePage - Dog List" id="l11hQqiA0nnNnRFRrhsg">
    <mxGraphModel dx="2040" dy="1033" grid="1" gridSize="10" guides="1" tooltips="1" connect="1" arrows="1" fold="1" page="1" pageScale="1" pageWidth="850" pageHeight="1100" math="0" shadow="0">
      <root>
        <mxCell id="0" />
        <mxCell id="1" parent="0" />
        <mxCell id="b7Y2qeC1Cj4s1qI2_A_5-2" value="All Dogs" style="text;html=1;strokeColor=none;fillColor=none;fontSize=18;fontStyle=1;movable=0;resizable=0;rotatable=0;deletable=0;editable=0;locked=1;connectable=0;" vertex="1" parent="1">
          <mxGeometry x="20" y="70" width="160" height="30" as="geometry" />
        </mxCell>
        <mxCell id="b7Y2qeC1Cj4s1qI2_A_5-3" value="Add Dog" style="rounded=1;whiteSpace=wrap;html=1;fillColor=#a5d6a7;movable=0;resizable=0;rotatable=0;deletable=0;editable=0;locked=1;connectable=0;" vertex="1" parent="1">
          <mxGeometry x="650" y="70" width="100" height="30" as="geometry" />
        </mxCell>
        <mxCell id="b7Y2qeC1Cj4s1qI2_A_5-4" value="Dog: Fido" style="rounded=1;whiteSpace=wrap;html=1;fillColor=#f5f5f5;movable=0;resizable=0;rotatable=0;deletable=0;editable=0;locked=1;connectable=0;" vertex="1" parent="1">
          <mxGeometry x="20" y="120" width="740" height="50" as="geometry" />
        </mxCell>
        <mxCell id="b7Y2qeC1Cj4s1qI2_A_5-5" value="Dog: Luna" style="rounded=1;whiteSpace=wrap;html=1;fillColor=#f5f5f5;movable=0;resizable=0;rotatable=0;deletable=0;editable=0;locked=1;connectable=0;" vertex="1" parent="1">
          <mxGeometry x="20" y="180" width="740" height="50" as="geometry" />
        </mxCell>
        <mxCell id="b7Y2qeC1Cj4s1qI2_A_5-6" value="Dog: Max" style="rounded=1;whiteSpace=wrap;html=1;fillColor=#f5f5f5;movable=0;resizable=0;rotatable=0;deletable=0;editable=0;locked=1;connectable=0;" vertex="1" parent="1">
          <mxGeometry x="20" y="240" width="740" height="50" as="geometry" />
        </mxCell>
        <mxCell id="b7Y2qeC1Cj4s1qI2_A_5-8" value="Dog Detail" style="text;html=1;strokeColor=none;fillColor=none;fontSize=18;fontStyle=1;movable=1;resizable=1;rotatable=1;deletable=1;editable=1;locked=0;connectable=1;" vertex="1" parent="1">
          <mxGeometry x="10" y="810" width="200" height="30" as="geometry" />
        </mxCell>
        <mxCell id="b7Y2qeC1Cj4s1qI2_A_5-9" value="Name: Fido" style="rounded=1;whiteSpace=wrap;html=1;fillColor=#ffffff;movable=1;resizable=1;rotatable=1;deletable=1;editable=1;locked=0;connectable=1;" vertex="1" parent="1">
          <mxGeometry x="10" y="860" width="300" height="40" as="geometry" />
        </mxCell>
        <mxCell id="b7Y2qeC1Cj4s1qI2_A_5-10" value="City: Austin" style="rounded=1;whiteSpace=wrap;html=1;fillColor=#ffffff;movable=1;resizable=1;rotatable=1;deletable=1;editable=1;locked=0;connectable=1;" vertex="1" parent="1">
          <mxGeometry x="10" y="910" width="300" height="40" as="geometry" />
        </mxCell>
        <mxCell id="b7Y2qeC1Cj4s1qI2_A_5-11" value="&lt;span style=&quot;color: rgb(255, 0, 0);&quot;&gt;Walker: Jamal&lt;/span&gt; [nullable]" style="rounded=1;whiteSpace=wrap;html=1;fillColor=#ffffff;movable=1;resizable=1;rotatable=1;deletable=1;editable=1;locked=0;connectable=1;" vertex="1" parent="1">
          <mxGeometry x="10" y="960" width="300" height="40" as="geometry" />
        </mxCell>
        <mxCell id="b7Y2qeC1Cj4s1qI2_A_5-13" value="All Dogs" style="text;html=1;strokeColor=none;fillColor=none;fontSize=18;fontStyle=1;movable=0;resizable=0;rotatable=0;deletable=0;editable=0;locked=1;connectable=0;" vertex="1" parent="1">
          <mxGeometry x="20" y="70" width="160" height="30" as="geometry" />
        </mxCell>
        <mxCell id="b7Y2qeC1Cj4s1qI2_A_5-14" value="Add Dog" style="rounded=1;whiteSpace=wrap;html=1;fillColor=#a5d6a7;movable=0;resizable=0;rotatable=0;deletable=0;editable=0;locked=1;connectable=0;" vertex="1" parent="1">
          <mxGeometry x="650" y="70" width="100" height="30" as="geometry" />
        </mxCell>
        <mxCell id="b7Y2qeC1Cj4s1qI2_A_5-15" value="Dog: Fido" style="rounded=1;whiteSpace=wrap;html=1;fillColor=#f5f5f5;movable=0;resizable=0;rotatable=0;deletable=0;editable=0;locked=1;connectable=0;" vertex="1" parent="1">
          <mxGeometry x="20" y="120" width="740" height="50" as="geometry" />
        </mxCell>
        <mxCell id="b7Y2qeC1Cj4s1qI2_A_5-16" value="Dog: Luna" style="rounded=1;whiteSpace=wrap;html=1;fillColor=#f5f5f5;movable=0;resizable=0;rotatable=0;deletable=0;editable=0;locked=1;connectable=0;" vertex="1" parent="1">
          <mxGeometry x="20" y="180" width="740" height="50" as="geometry" />
        </mxCell>
        <mxCell id="b7Y2qeC1Cj4s1qI2_A_5-17" value="Dog: Max" style="rounded=1;whiteSpace=wrap;html=1;fillColor=#f5f5f5;movable=0;resizable=0;rotatable=0;deletable=0;editable=0;locked=1;connectable=0;" vertex="1" parent="1">
          <mxGeometry x="20" y="240" width="740" height="50" as="geometry" />
        </mxCell>
        <mxCell id="b7Y2qeC1Cj4s1qI2_A_5-19" value="All Dogs" style="text;html=1;strokeColor=none;fillColor=none;fontSize=18;fontStyle=1;movable=0;resizable=0;rotatable=0;deletable=0;editable=0;locked=1;connectable=0;" vertex="1" parent="1">
          <mxGeometry x="20" y="70" width="160" height="30" as="geometry" />
        </mxCell>
        <mxCell id="b7Y2qeC1Cj4s1qI2_A_5-20" value="Add Dog" style="rounded=1;whiteSpace=wrap;html=1;fillColor=#a5d6a7;movable=1;resizable=1;rotatable=1;deletable=1;editable=1;locked=0;connectable=1;" vertex="1" parent="1">
          <mxGeometry x="650" y="70" width="100" height="30" as="geometry" />
        </mxCell>
        <mxCell id="b7Y2qeC1Cj4s1qI2_A_5-21" value="Dog: Fido" style="rounded=1;whiteSpace=wrap;html=1;fillColor=#f5f5f5;movable=0;resizable=0;rotatable=0;deletable=0;editable=0;locked=1;connectable=0;" vertex="1" parent="1">
          <mxGeometry x="20" y="120" width="740" height="50" as="geometry" />
        </mxCell>
        <mxCell id="b7Y2qeC1Cj4s1qI2_A_5-22" value="Dog: Luna" style="rounded=1;whiteSpace=wrap;html=1;fillColor=#f5f5f5;movable=0;resizable=0;rotatable=0;deletable=0;editable=0;locked=1;connectable=0;" vertex="1" parent="1">
          <mxGeometry x="20" y="180" width="740" height="50" as="geometry" />
        </mxCell>
        <mxCell id="b7Y2qeC1Cj4s1qI2_A_5-23" value="Dog: Max" style="rounded=1;whiteSpace=wrap;html=1;fillColor=#f5f5f5;movable=0;resizable=0;rotatable=0;deletable=0;editable=0;locked=1;connectable=0;" vertex="1" parent="1">
          <mxGeometry x="20" y="240" width="740" height="50" as="geometry" />
        </mxCell>
        <mxCell id="b7Y2qeC1Cj4s1qI2_A_5-32" value="Add a New Dog" style="text;html=1;fontSize=18;fontStyle=1;movable=1;resizable=1;rotatable=1;deletable=1;editable=1;locked=0;connectable=1;" vertex="1" parent="1">
          <mxGeometry x="20" y="400" width="200" height="30" as="geometry" />
        </mxCell>
        <mxCell id="b7Y2qeC1Cj4s1qI2_A_5-33" value="Name:" style="text;html=1;movable=1;resizable=1;rotatable=1;deletable=1;editable=1;locked=0;connectable=1;" vertex="1" parent="1">
          <mxGeometry x="20" y="450" width="80" height="30" as="geometry" />
        </mxCell>
        <mxCell id="b7Y2qeC1Cj4s1qI2_A_5-34" value="" style="rounded=1;whiteSpace=wrap;html=1;fillColor=#ffffff;movable=1;resizable=1;rotatable=1;deletable=1;editable=1;locked=0;connectable=1;" vertex="1" parent="1">
          <mxGeometry x="100" y="450" width="200" height="30" as="geometry" />
        </mxCell>
        <mxCell id="b7Y2qeC1Cj4s1qI2_A_5-35" value="City:" style="text;html=1;movable=1;resizable=1;rotatable=1;deletable=1;editable=1;locked=0;connectable=1;" vertex="1" parent="1">
          <mxGeometry x="20" y="500" width="80" height="30" as="geometry" />
        </mxCell>
        <mxCell id="b7Y2qeC1Cj4s1qI2_A_5-36" value="(dropdown)" style="rounded=1;whiteSpace=wrap;html=1;fillColor=#ffffff;movable=1;resizable=1;rotatable=1;deletable=1;editable=1;locked=0;connectable=1;" vertex="1" parent="1">
          <mxGeometry x="100" y="500" width="200" height="30" as="geometry" />
        </mxCell>
        <mxCell id="b7Y2qeC1Cj4s1qI2_A_5-37" value="Submit" style="rounded=1;fillColor=#a5d6a7;html=1;movable=1;resizable=1;rotatable=1;deletable=1;editable=1;locked=0;connectable=1;" vertex="1" parent="1">
          <mxGeometry x="100" y="570" width="100" height="30" as="geometry" />
        </mxCell>
        <mxCell id="b7Y2qeC1Cj4s1qI2_A_5-39" value="Walkers" style="text;html=1;fontSize=18;fontStyle=1;movable=0;resizable=0;rotatable=0;deletable=0;editable=0;locked=1;connectable=0;" vertex="1" parent="1">
          <mxGeometry x="1030" y="80" width="200" height="30" as="geometry" />
        </mxCell>
        <mxCell id="b7Y2qeC1Cj4s1qI2_A_5-40" value="City Filter (dropdown)" style="rounded=1;whiteSpace=wrap;html=1;fillColor=#ffffff;movable=0;resizable=0;rotatable=0;deletable=0;editable=0;locked=1;connectable=0;" vertex="1" parent="1">
          <mxGeometry x="1610" y="80" width="180" height="30" as="geometry" />
        </mxCell>
        <mxCell id="b7Y2qeC1Cj4s1qI2_A_5-41" value="Walker: Jamal [Austin]" style="rounded=1;whiteSpace=wrap;html=1;fillColor=#f5f5f5;movable=0;resizable=0;rotatable=0;deletable=0;editable=0;locked=1;connectable=0;" vertex="1" parent="1">
          <mxGeometry x="1030" y="130" width="600" height="50" as="geometry" />
        </mxCell>
        <mxCell id="b7Y2qeC1Cj4s1qI2_A_5-42" value="Add Dog" style="rounded=1;fillColor=#bbdefb;html=1;movable=1;resizable=1;rotatable=1;deletable=1;editable=1;locked=0;connectable=1;" vertex="1" parent="1">
          <mxGeometry x="1650" y="130" width="100" height="50" as="geometry" />
        </mxCell>
        <mxCell id="b7Y2qeC1Cj4s1qI2_A_5-43" value="Walker: Riley [Austin, Houston]" style="rounded=1;whiteSpace=wrap;html=1;fillColor=#f5f5f5;movable=0;resizable=0;rotatable=0;deletable=0;editable=0;locked=1;connectable=0;" vertex="1" parent="1">
          <mxGeometry x="1030" y="190" width="600" height="50" as="geometry" />
        </mxCell>
        <mxCell id="b7Y2qeC1Cj4s1qI2_A_5-44" value="Add Dog" style="rounded=1;fillColor=#bbdefb;html=1;movable=0;resizable=0;rotatable=0;deletable=0;editable=0;locked=1;connectable=0;" vertex="1" parent="1">
          <mxGeometry x="1650" y="190" width="100" height="50" as="geometry" />
        </mxCell>
        <mxCell id="b7Y2qeC1Cj4s1qI2_A_5-46" value="Assign Dog to Walker: Jamal" style="text;html=1;fontSize=18;fontStyle=1;movable=1;resizable=1;rotatable=1;deletable=1;editable=1;locked=0;connectable=1;" vertex="1" parent="1">
          <mxGeometry x="1030" y="415" width="400" height="30" as="geometry" />
        </mxCell>
        <mxCell id="b7Y2qeC1Cj4s1qI2_A_5-47" value="Eligible Dogs (in walker&#39;s cities, unassigned)" style="text;html=1;movable=1;resizable=1;rotatable=1;deletable=1;editable=1;locked=0;connectable=1;" vertex="1" parent="1">
          <mxGeometry x="1030" y="455" width="400" height="20" as="geometry" />
        </mxCell>
        <mxCell id="b7Y2qeC1Cj4s1qI2_A_5-48" value="Dog: Rocky (Austin)" style="rounded=1;whiteSpace=wrap;fillColor=#f5f5f5;movable=1;resizable=1;rotatable=1;deletable=1;editable=1;locked=0;connectable=1;" vertex="1" parent="1">
          <mxGeometry x="1030" y="485" width="600" height="50" as="geometry" />
        </mxCell>
        <mxCell id="b7Y2qeC1Cj4s1qI2_A_5-49" value="Assign" style="rounded=1;fillColor=#aed581;movable=1;resizable=1;rotatable=1;deletable=1;editable=1;locked=0;connectable=1;" vertex="1" parent="1">
          <mxGeometry x="1650" y="485" width="100" height="50" as="geometry" />
        </mxCell>
        <mxCell id="b7Y2qeC1Cj4s1qI2_A_5-50" value="Dog: Bella (Austin)" style="rounded=1;whiteSpace=wrap;fillColor=#f5f5f5;movable=1;resizable=1;rotatable=1;deletable=1;editable=1;locked=0;connectable=1;" vertex="1" parent="1">
          <mxGeometry x="1030" y="545" width="600" height="50" as="geometry" />
        </mxCell>
        <mxCell id="b7Y2qeC1Cj4s1qI2_A_5-51" value="Assign" style="rounded=1;fillColor=#aed581;movable=1;resizable=1;rotatable=1;deletable=1;editable=1;locked=0;connectable=1;" vertex="1" parent="1">
          <mxGeometry x="1650" y="545" width="100" height="50" as="geometry" />
        </mxCell>
        <mxCell id="b7Y2qeC1Cj4s1qI2_A_5-107" value="&lt;!-- Nav Bar Background --&gt;&#xa;&lt;mxCell id=&quot;2&quot; value=&quot;&quot; style=&quot;rounded=0;whiteSpace=wrap;html=1;fillColor=#eeeeee;&quot; vertex=&quot;1&quot; parent=&quot;1&quot;&gt;&#xa;  &lt;mxGeometry x=&quot;0&quot; y=&quot;0&quot; width=&quot;800&quot; height=&quot;50&quot; as=&quot;geometry&quot;/&gt;&#xa;&lt;/mxCell&gt;&#xa;&#xa;&lt;!-- App Title --&gt;&#xa;&lt;mxCell id=&quot;3&quot; value=&quot;🐾 DeShawn&#39;s&quot; style=&quot;text;html=1;fontSize=14;fontStyle=1;align=left;&quot; vertex=&quot;1&quot; parent=&quot;1&quot;&gt;&#xa;  &lt;mxGeometry x=&quot;10&quot; y=&quot;10&quot; width=&quot;120&quot; height=&quot;30&quot; as=&quot;geometry&quot;/&gt;&#xa;&lt;/mxCell&gt;&#xa;&#xa;&lt;!-- Dogs Button --&gt;&#xa;&lt;mxCell id=&quot;4&quot; value=&quot;Dogs&quot; style=&quot;rounded=1;whiteSpace=wrap;html=1;fillColor=#ffffff;strokeColor=#9e9e9e;&quot; vertex=&quot;1&quot; parent=&quot;1&quot;&gt;&#xa;  &lt;mxGeometry x=&quot;300&quot; y=&quot;10&quot; width=&quot;80&quot; height=&quot;30&quot; as=&quot;geometry&quot;/&gt;&#xa;&lt;/mxCell&gt;&#xa;&#xa;&lt;!-- Walkers Button --&gt;&#xa;&lt;mxCell id=&quot;5&quot; value=&quot;Walkers&quot; style=&quot;rounded=1;whiteSpace=wrap;html=1;fillColor=#ffffff;strokeColor=#9e9e9e;&quot; vertex=&quot;1&quot; parent=&quot;1&quot;&gt;&#xa;  &lt;mxGeometry x=&quot;390&quot; y=&quot;10&quot; width=&quot;80&quot; height=&quot;30&quot; as=&quot;geometry&quot;/&gt;&#xa;&lt;/mxCell&gt;&#xa;&#xa;&lt;!-- Cities Button --&gt;&#xa;&lt;mxCell id=&quot;6&quot; value=&quot;Cities&quot; style=&quot;rounded=1;whiteSpace=wrap;html=1;fillColor=#ffffff;strokeColor=#9e9e9e;&quot; vertex=&quot;1&quot; parent=&quot;1&quot;&gt;&#xa;  &lt;mxGeometry x=&quot;480&quot; y=&quot;10&quot; width=&quot;80&quot; height=&quot;30&quot; as=&quot;geometry&quot;/&gt;&#xa;&lt;/mxCell&gt;" style="html=1;shadow=0;dashed=0;fillColor=#F8F9FA;strokeColor=none;fontSize=16;fontColor=#181819;align=left;spacing=15;" vertex="1" parent="1">
          <mxGeometry x="10" y="340" width="800" height="60" as="geometry" />
        </mxCell>
        <mxCell id="b7Y2qeC1Cj4s1qI2_A_5-108" value="" style="swimlane;shape=mxgraph.bootstrap.anchor;strokeColor=none;fillColor=none;fontColor=#0085FC;fontStyle=0;childLayout=stackLayout;horizontal=0;startSize=0;horizontalStack=1;resizeParent=1;resizeParentMax=0;resizeLast=0;collapsible=0;marginBottom=0;whiteSpace=wrap;html=1;resizeWidth=0;movable=1;resizable=1;rotatable=1;deletable=1;editable=1;locked=0;connectable=1;" vertex="1" parent="b7Y2qeC1Cj4s1qI2_A_5-107">
          <mxGeometry y="10" width="230" height="40" as="geometry" />
        </mxCell>
        <mxCell id="b7Y2qeC1Cj4s1qI2_A_5-109" value="Navbar" style="text;strokeColor=none;align=center;verticalAlign=middle;spacingLeft=10;spacingRight=10;points=[[0,0.5],[1,0.5]];portConstraint=eastwest;rotatable=1;whiteSpace=wrap;html=1;fillColor=none;fontColor=#181819;fontSize=16;movable=1;resizable=1;deletable=1;editable=1;locked=0;connectable=1;" vertex="1" parent="b7Y2qeC1Cj4s1qI2_A_5-108">
          <mxGeometry width="80" height="40" as="geometry" />
        </mxCell>
        <mxCell id="b7Y2qeC1Cj4s1qI2_A_5-110" value="Dogs" style="text;strokeColor=none;align=center;verticalAlign=middle;spacingLeft=10;spacingRight=10;points=[[0,0.5],[1,0.5]];portConstraint=eastwest;rotatable=1;whiteSpace=wrap;html=1;fillColor=none;fontColor=#181819;fontSize=14;movable=1;resizable=1;deletable=1;editable=1;locked=0;connectable=1;" vertex="1" parent="b7Y2qeC1Cj4s1qI2_A_5-108">
          <mxGeometry x="80" width="50" height="40" as="geometry" />
        </mxCell>
        <mxCell id="b7Y2qeC1Cj4s1qI2_A_5-111" value="Citie" style="text;strokeColor=none;align=center;verticalAlign=middle;spacingLeft=10;spacingRight=10;points=[[0,0.5],[1,0.5]];portConstraint=eastwest;rotatable=1;whiteSpace=wrap;html=1;fillColor=none;fontColor=#181819;fontSize=14;movable=1;resizable=1;deletable=1;editable=1;locked=0;connectable=1;" vertex="1" parent="b7Y2qeC1Cj4s1qI2_A_5-108">
          <mxGeometry x="130" width="50" height="40" as="geometry" />
        </mxCell>
        <mxCell id="b7Y2qeC1Cj4s1qI2_A_5-112" value="Walkers" style="text;strokeColor=none;align=center;verticalAlign=middle;spacingLeft=10;spacingRight=10;points=[[0,0.5],[1,0.5]];portConstraint=eastwest;rotatable=1;whiteSpace=wrap;html=1;fillColor=none;fontColor=#181819;fontSize=14;movable=1;resizable=1;deletable=1;editable=1;locked=0;connectable=1;" vertex="1" parent="b7Y2qeC1Cj4s1qI2_A_5-108">
          <mxGeometry x="180" width="50" height="40" as="geometry" />
        </mxCell>
        <mxCell id="b7Y2qeC1Cj4s1qI2_A_5-113" value="" style="rounded=0;whiteSpace=wrap;html=1;fillColor=#eeeeee;" vertex="1" parent="1">
          <mxGeometry x="2030" width="800" height="50" as="geometry" />
        </mxCell>
        <mxCell id="b7Y2qeC1Cj4s1qI2_A_5-114" value="🐾 DeShawn&#39;s" style="text;html=1;fontSize=14;fontStyle=1;" vertex="1" parent="1">
          <mxGeometry x="2040" y="10" width="120" height="30" as="geometry" />
        </mxCell>
        <mxCell id="b7Y2qeC1Cj4s1qI2_A_5-115" value="Dogs" style="rounded=1;fillColor=#ffffff;" vertex="1" parent="1">
          <mxGeometry x="2330" y="10" width="80" height="30" as="geometry" />
        </mxCell>
        <mxCell id="b7Y2qeC1Cj4s1qI2_A_5-116" value="Walkers" style="rounded=1;fillColor=#ffffff;" vertex="1" parent="1">
          <mxGeometry x="2420" y="10" width="80" height="30" as="geometry" />
        </mxCell>
        <mxCell id="b7Y2qeC1Cj4s1qI2_A_5-117" value="Cities" style="rounded=1;fillColor=#ffffff;" vertex="1" parent="1">
          <mxGeometry x="2510" y="10" width="80" height="30" as="geometry" />
        </mxCell>
        <mxCell id="b7Y2qeC1Cj4s1qI2_A_5-118" value="Manage Cities" style="text;html=1;fontSize=18;fontStyle=1;" vertex="1" parent="1">
          <mxGeometry x="2050" y="70" width="300" height="30" as="geometry" />
        </mxCell>
        <mxCell id="b7Y2qeC1Cj4s1qI2_A_5-119" value="New City Name:" style="text;html=1;" vertex="1" parent="1">
          <mxGeometry x="2050" y="120" width="120" height="30" as="geometry" />
        </mxCell>
        <mxCell id="b7Y2qeC1Cj4s1qI2_A_5-120" value="" style="rounded=1;whiteSpace=wrap;fillColor=#ffffff;" vertex="1" parent="1">
          <mxGeometry x="2180" y="120" width="200" height="30" as="geometry" />
        </mxCell>
        <mxCell id="b7Y2qeC1Cj4s1qI2_A_5-121" value="Add" style="rounded=1;fillColor=#81d4fa;" vertex="1" parent="1">
          <mxGeometry x="2400" y="120" width="80" height="30" as="geometry" />
        </mxCell>
        <mxCell id="b7Y2qeC1Cj4s1qI2_A_5-122" value="Cities:" style="text;html=1;" vertex="1" parent="1">
          <mxGeometry x="2050" y="180" width="100" height="20" as="geometry" />
        </mxCell>
        <mxCell id="b7Y2qeC1Cj4s1qI2_A_5-123" value="• Austin" style="text;html=1;" vertex="1" parent="1">
          <mxGeometry x="2070" y="210" width="200" height="20" as="geometry" />
        </mxCell>
        <mxCell id="b7Y2qeC1Cj4s1qI2_A_5-124" value="• Houston" style="text;html=1;" vertex="1" parent="1">
          <mxGeometry x="2070" y="240" width="200" height="20" as="geometry" />
        </mxCell>
        <mxCell id="b7Y2qeC1Cj4s1qI2_A_5-130" value="Edit Walker: Jamal" style="text;html=1;fontSize=18;fontStyle=1;movable=0;resizable=0;rotatable=0;deletable=0;editable=0;locked=1;connectable=0;" vertex="1" parent="1">
          <mxGeometry x="1050" y="820" width="400" height="30" as="geometry" />
        </mxCell>
        <mxCell id="b7Y2qeC1Cj4s1qI2_A_5-131" value="Name:" style="text;html=1;movable=0;resizable=0;rotatable=0;deletable=0;editable=0;locked=1;connectable=0;" vertex="1" parent="1">
          <mxGeometry x="1050" y="870" width="80" height="30" as="geometry" />
        </mxCell>
        <mxCell id="b7Y2qeC1Cj4s1qI2_A_5-132" value="Jamal" style="rounded=1;fillColor=#ffffff;movable=0;resizable=0;rotatable=0;deletable=0;editable=0;locked=1;connectable=0;" vertex="1" parent="1">
          <mxGeometry x="1130" y="870" width="200" height="30" as="geometry" />
        </mxCell>
        <mxCell id="b7Y2qeC1Cj4s1qI2_A_5-133" value="Cities:" style="text;html=1;movable=0;resizable=0;rotatable=0;deletable=0;editable=0;locked=1;connectable=0;" vertex="1" parent="1">
          <mxGeometry x="1050" y="920" width="100" height="30" as="geometry" />
        </mxCell>
        <mxCell id="b7Y2qeC1Cj4s1qI2_A_5-134" value="☑ Austin" style="text;html=1;movable=0;resizable=0;rotatable=0;deletable=0;editable=0;locked=1;connectable=0;" vertex="1" parent="1">
          <mxGeometry x="1070" y="960" width="120" height="20" as="geometry" />
        </mxCell>
        <mxCell id="b7Y2qeC1Cj4s1qI2_A_5-135" value="☐ Houston" style="text;html=1;movable=0;resizable=0;rotatable=0;deletable=0;editable=0;locked=1;connectable=0;" vertex="1" parent="1">
          <mxGeometry x="1070" y="990" width="120" height="20" as="geometry" />
        </mxCell>
        <mxCell id="b7Y2qeC1Cj4s1qI2_A_5-136" value="☐ Dallas" style="text;html=1;movable=0;resizable=0;rotatable=0;deletable=0;editable=0;locked=1;connectable=0;" vertex="1" parent="1">
          <mxGeometry x="1070" y="1020" width="120" height="20" as="geometry" />
        </mxCell>
        <mxCell id="b7Y2qeC1Cj4s1qI2_A_5-137" value="Update" style="rounded=1;fillColor=#aed581;movable=0;resizable=0;rotatable=0;deletable=0;editable=0;locked=1;connectable=0;" vertex="1" parent="1">
          <mxGeometry x="1130" y="1070" width="100" height="30" as="geometry" />
        </mxCell>
        <mxCell id="b7Y2qeC1Cj4s1qI2_A_5-146" value="" style="group;movable=0;resizable=0;rotatable=0;deletable=0;editable=0;locked=1;connectable=0;" vertex="1" connectable="0" parent="1">
          <mxGeometry x="1030" y="750" width="800" height="50" as="geometry" />
        </mxCell>
        <mxCell id="b7Y2qeC1Cj4s1qI2_A_5-125" value="" style="rounded=0;fillColor=#eeeeee;movable=0;resizable=0;rotatable=0;deletable=0;editable=0;locked=1;connectable=0;" vertex="1" parent="b7Y2qeC1Cj4s1qI2_A_5-146">
          <mxGeometry width="800" height="50" as="geometry" />
        </mxCell>
        <mxCell id="b7Y2qeC1Cj4s1qI2_A_5-126" value="🐾 DeShawn&#39;s" style="text;html=1;fontSize=14;fontStyle=1;movable=0;resizable=0;rotatable=0;deletable=0;editable=0;locked=1;connectable=0;" vertex="1" parent="b7Y2qeC1Cj4s1qI2_A_5-146">
          <mxGeometry x="10" y="10" width="120" height="30" as="geometry" />
        </mxCell>
        <mxCell id="b7Y2qeC1Cj4s1qI2_A_5-127" value="Dogs" style="rounded=1;fillColor=#ffffff;movable=0;resizable=0;rotatable=0;deletable=0;editable=0;locked=1;connectable=0;" vertex="1" parent="b7Y2qeC1Cj4s1qI2_A_5-146">
          <mxGeometry x="300" y="10" width="80" height="30" as="geometry" />
        </mxCell>
        <mxCell id="b7Y2qeC1Cj4s1qI2_A_5-128" value="Walkers" style="rounded=1;fillColor=#ffffff;movable=0;resizable=0;rotatable=0;deletable=0;editable=0;locked=1;connectable=0;" vertex="1" parent="b7Y2qeC1Cj4s1qI2_A_5-146">
          <mxGeometry x="390" y="10" width="80" height="30" as="geometry" />
        </mxCell>
        <mxCell id="b7Y2qeC1Cj4s1qI2_A_5-129" value="Cities" style="rounded=1;fillColor=#ffffff;movable=0;resizable=0;rotatable=0;deletable=0;editable=0;locked=1;connectable=0;" vertex="1" parent="b7Y2qeC1Cj4s1qI2_A_5-146">
          <mxGeometry x="480" y="10" width="80" height="30" as="geometry" />
        </mxCell>
        <mxCell id="b7Y2qeC1Cj4s1qI2_A_5-147" value="" style="group" vertex="1" connectable="0" parent="1">
          <mxGeometry y="730" width="800" height="50" as="geometry" />
        </mxCell>
        <mxCell id="b7Y2qeC1Cj4s1qI2_A_5-148" value="" style="rounded=0;fillColor=#eeeeee;movable=1;resizable=1;rotatable=1;deletable=1;editable=1;locked=0;connectable=1;" vertex="1" parent="b7Y2qeC1Cj4s1qI2_A_5-147">
          <mxGeometry width="800" height="50" as="geometry" />
        </mxCell>
        <mxCell id="b7Y2qeC1Cj4s1qI2_A_5-149" value="🐾 DeShawn&#39;s" style="text;html=1;fontSize=14;fontStyle=1;movable=0;resizable=0;rotatable=0;deletable=0;editable=0;locked=1;connectable=0;" vertex="1" parent="b7Y2qeC1Cj4s1qI2_A_5-147">
          <mxGeometry x="10" y="10" width="120" height="30" as="geometry" />
        </mxCell>
        <mxCell id="b7Y2qeC1Cj4s1qI2_A_5-150" value="Dogs" style="rounded=1;fillColor=#ffffff;movable=0;resizable=0;rotatable=0;deletable=0;editable=0;locked=1;connectable=0;" vertex="1" parent="b7Y2qeC1Cj4s1qI2_A_5-147">
          <mxGeometry x="300" y="10" width="80" height="30" as="geometry" />
        </mxCell>
        <mxCell id="b7Y2qeC1Cj4s1qI2_A_5-151" value="Walkers" style="rounded=1;fillColor=#ffffff;movable=0;resizable=0;rotatable=0;deletable=0;editable=0;locked=1;connectable=0;" vertex="1" parent="b7Y2qeC1Cj4s1qI2_A_5-147">
          <mxGeometry x="390" y="10" width="80" height="30" as="geometry" />
        </mxCell>
        <mxCell id="b7Y2qeC1Cj4s1qI2_A_5-152" value="Cities" style="rounded=1;fillColor=#ffffff;movable=0;resizable=0;rotatable=0;deletable=0;editable=0;locked=1;connectable=0;" vertex="1" parent="b7Y2qeC1Cj4s1qI2_A_5-147">
          <mxGeometry x="480" y="10" width="80" height="30" as="geometry" />
        </mxCell>
        <mxCell id="b7Y2qeC1Cj4s1qI2_A_5-153" value="" style="group" vertex="1" connectable="0" parent="1">
          <mxGeometry y="10" width="800" height="50" as="geometry" />
        </mxCell>
        <mxCell id="b7Y2qeC1Cj4s1qI2_A_5-154" value="" style="rounded=0;fillColor=#eeeeee;movable=1;resizable=1;rotatable=1;deletable=1;editable=1;locked=0;connectable=1;" vertex="1" parent="b7Y2qeC1Cj4s1qI2_A_5-153">
          <mxGeometry width="800" height="50" as="geometry" />
        </mxCell>
        <mxCell id="b7Y2qeC1Cj4s1qI2_A_5-155" value="🐾 DeShawn&#39;s" style="text;html=1;fontSize=14;fontStyle=1;movable=0;resizable=0;rotatable=0;deletable=0;editable=0;locked=1;connectable=0;" vertex="1" parent="b7Y2qeC1Cj4s1qI2_A_5-153">
          <mxGeometry x="10" y="10" width="120" height="30" as="geometry" />
        </mxCell>
        <mxCell id="b7Y2qeC1Cj4s1qI2_A_5-156" value="Dogs" style="rounded=1;fillColor=#ffffff;movable=0;resizable=0;rotatable=0;deletable=0;editable=0;locked=1;connectable=0;" vertex="1" parent="b7Y2qeC1Cj4s1qI2_A_5-153">
          <mxGeometry x="300" y="10" width="80" height="30" as="geometry" />
        </mxCell>
        <mxCell id="b7Y2qeC1Cj4s1qI2_A_5-157" value="Walkers" style="rounded=1;fillColor=#ffffff;movable=0;resizable=0;rotatable=0;deletable=0;editable=0;locked=1;connectable=0;" vertex="1" parent="b7Y2qeC1Cj4s1qI2_A_5-153">
          <mxGeometry x="390" y="10" width="80" height="30" as="geometry" />
        </mxCell>
        <mxCell id="b7Y2qeC1Cj4s1qI2_A_5-158" value="Cities" style="rounded=1;fillColor=#ffffff;movable=0;resizable=0;rotatable=0;deletable=0;editable=0;locked=1;connectable=0;" vertex="1" parent="b7Y2qeC1Cj4s1qI2_A_5-153">
          <mxGeometry x="480" y="10" width="80" height="30" as="geometry" />
        </mxCell>
        <mxCell id="b7Y2qeC1Cj4s1qI2_A_5-159" value="" style="group" vertex="1" connectable="0" parent="1">
          <mxGeometry x="1020" y="10" width="800" height="50" as="geometry" />
        </mxCell>
        <mxCell id="b7Y2qeC1Cj4s1qI2_A_5-160" value="" style="rounded=0;fillColor=#eeeeee;movable=1;resizable=1;rotatable=1;deletable=1;editable=1;locked=0;connectable=1;" vertex="1" parent="b7Y2qeC1Cj4s1qI2_A_5-159">
          <mxGeometry width="800" height="50" as="geometry" />
        </mxCell>
        <mxCell id="b7Y2qeC1Cj4s1qI2_A_5-161" value="🐾 DeShawn&#39;s" style="text;html=1;fontSize=14;fontStyle=1;movable=0;resizable=0;rotatable=0;deletable=0;editable=0;locked=1;connectable=0;" vertex="1" parent="b7Y2qeC1Cj4s1qI2_A_5-159">
          <mxGeometry x="10" y="10" width="120" height="30" as="geometry" />
        </mxCell>
        <mxCell id="b7Y2qeC1Cj4s1qI2_A_5-162" value="Dogs" style="rounded=1;fillColor=#ffffff;movable=0;resizable=0;rotatable=0;deletable=0;editable=0;locked=1;connectable=0;" vertex="1" parent="b7Y2qeC1Cj4s1qI2_A_5-159">
          <mxGeometry x="300" y="10" width="80" height="30" as="geometry" />
        </mxCell>
        <mxCell id="b7Y2qeC1Cj4s1qI2_A_5-163" value="Walkers" style="rounded=1;fillColor=#ffffff;movable=0;resizable=0;rotatable=0;deletable=0;editable=0;locked=1;connectable=0;" vertex="1" parent="b7Y2qeC1Cj4s1qI2_A_5-159">
          <mxGeometry x="390" y="10" width="80" height="30" as="geometry" />
        </mxCell>
        <mxCell id="b7Y2qeC1Cj4s1qI2_A_5-164" value="Cities" style="rounded=1;fillColor=#ffffff;movable=0;resizable=0;rotatable=0;deletable=0;editable=0;locked=1;connectable=0;" vertex="1" parent="b7Y2qeC1Cj4s1qI2_A_5-159">
          <mxGeometry x="480" y="10" width="80" height="30" as="geometry" />
        </mxCell>
        <mxCell id="b7Y2qeC1Cj4s1qI2_A_5-165" value="" style="group" vertex="1" connectable="0" parent="1">
          <mxGeometry x="1030" y="330" width="800" height="50" as="geometry" />
        </mxCell>
        <mxCell id="b7Y2qeC1Cj4s1qI2_A_5-166" value="" style="rounded=0;fillColor=#eeeeee;movable=1;resizable=1;rotatable=1;deletable=1;editable=1;locked=0;connectable=1;" vertex="1" parent="b7Y2qeC1Cj4s1qI2_A_5-165">
          <mxGeometry width="800" height="50" as="geometry" />
        </mxCell>
        <mxCell id="b7Y2qeC1Cj4s1qI2_A_5-167" value="🐾 DeShawn&#39;s" style="text;html=1;fontSize=14;fontStyle=1;movable=0;resizable=0;rotatable=0;deletable=0;editable=0;locked=1;connectable=0;" vertex="1" parent="b7Y2qeC1Cj4s1qI2_A_5-165">
          <mxGeometry x="10" y="10" width="120" height="30" as="geometry" />
        </mxCell>
        <mxCell id="b7Y2qeC1Cj4s1qI2_A_5-168" value="Dogs" style="rounded=1;fillColor=#ffffff;movable=0;resizable=0;rotatable=0;deletable=0;editable=0;locked=1;connectable=0;" vertex="1" parent="b7Y2qeC1Cj4s1qI2_A_5-165">
          <mxGeometry x="300" y="10" width="80" height="30" as="geometry" />
        </mxCell>
        <mxCell id="b7Y2qeC1Cj4s1qI2_A_5-169" value="Walkers" style="rounded=1;fillColor=#ffffff;movable=0;resizable=0;rotatable=0;deletable=0;editable=0;locked=1;connectable=0;" vertex="1" parent="b7Y2qeC1Cj4s1qI2_A_5-165">
          <mxGeometry x="390" y="10" width="80" height="30" as="geometry" />
        </mxCell>
        <mxCell id="b7Y2qeC1Cj4s1qI2_A_5-170" value="Cities" style="rounded=1;fillColor=#ffffff;movable=0;resizable=0;rotatable=0;deletable=0;editable=0;locked=1;connectable=0;" vertex="1" parent="b7Y2qeC1Cj4s1qI2_A_5-165">
          <mxGeometry x="480" y="10" width="80" height="30" as="geometry" />
        </mxCell>
        <mxCell id="b7Y2qeC1Cj4s1qI2_A_5-171" value="&lt;div&gt;murder&lt;/div&gt;" style="rounded=1;whiteSpace=wrap;html=1;fillColor=#FF0000;movable=1;resizable=1;rotatable=1;deletable=1;editable=1;locked=0;connectable=1;" vertex="1" parent="1">
          <mxGeometry x="770" y="130" width="100" height="30" as="geometry" />
        </mxCell>
        <mxCell id="b7Y2qeC1Cj4s1qI2_A_5-172" value="&lt;div&gt;murder&lt;/div&gt;" style="rounded=1;whiteSpace=wrap;html=1;fillColor=#FF0000;movable=1;resizable=1;rotatable=1;deletable=1;editable=1;locked=0;connectable=1;" vertex="1" parent="1">
          <mxGeometry x="770" y="190" width="100" height="30" as="geometry" />
        </mxCell>
        <mxCell id="b7Y2qeC1Cj4s1qI2_A_5-173" value="&lt;div&gt;murder&lt;/div&gt;" style="rounded=1;whiteSpace=wrap;html=1;fillColor=#FF0000;movable=1;resizable=1;rotatable=1;deletable=1;editable=1;locked=0;connectable=1;" vertex="1" parent="1">
          <mxGeometry x="770" y="250" width="100" height="30" as="geometry" />
        </mxCell>
        <mxCell id="b7Y2qeC1Cj4s1qI2_A_5-177" value="yeet" style="rounded=1;fillColor=#FF0000;html=1;movable=1;resizable=1;rotatable=1;deletable=1;editable=1;locked=0;connectable=1;" vertex="1" parent="1">
          <mxGeometry x="1760" y="130" width="100" height="50" as="geometry" />
        </mxCell>
        <mxCell id="b7Y2qeC1Cj4s1qI2_A_5-178" value="yeet" style="rounded=1;fillColor=#FF0000;html=1;movable=1;resizable=1;rotatable=1;deletable=1;editable=1;locked=0;connectable=1;" vertex="1" parent="1">
          <mxGeometry x="1760" y="190" width="100" height="50" as="geometry" />
        </mxCell>
      </root>
    </mxGraphModel>
  </diagram>
</mxfile>
